<svg width="1024" height="1024" viewBox="0 0 1024 1024" fill="none" xmlns="http://www.w3.org/2000/svg">
<rect width="1024" height="1024" rx="222" fill="url(#paint0_radial_21_38)"/>
<g filter="url(#filter0_d_21_38)">
<path d="M839.92 471.768C853.175 471.768 863.92 482.514 863.92 495.768V528.231C863.92 541.486 853.175 552.231 839.92 552.231H573.691C560.436 552.231 549.691 562.976 549.691 576.231V629.869C549.691 643.124 538.945 653.869 525.691 653.869H505.932C492.677 653.869 481.932 643.124 481.932 629.869V576.231C481.932 562.976 471.187 552.231 457.932 552.231H184.079C170.825 552.231 160.079 541.486 160.079 528.231V495.768C160.079 482.514 170.825 471.768 184.079 471.768H839.92Z" fill="black"/>
</g>
<rect x="183.931" y="376" width="80" height="271" rx="19" fill="#010101"/>
<rect x="184.431" y="376.5" width="79" height="270" rx="18.5" stroke="#BBBBBB" stroke-opacity="0.69"/>
<rect x="263.208" y="359" width="80" height="306" rx="19" fill="#010101"/>
<rect x="263.708" y="359.5" width="79" height="305" rx="18.5" stroke="#BBBBBB" stroke-opacity="0.69"/>
<rect width="80" height="271" rx="19" transform="matrix(-1 0 0 1 843.208 376)" fill="#010101"/>
<rect x="-0.5" y="0.5" width="79" height="270" rx="18.5" transform="matrix(-1 0 0 1 842.208 376)" stroke="#BBBBBB" stroke-opacity="0.69"/>
<rect width="80" height="306" rx="19" transform="matrix(-1 0 0 1 763.931 359)" fill="#010101"/>
<rect x="-0.5" y="0.5" width="79" height="305" rx="18.5" transform="matrix(-1 0 0 1 762.931 359)" stroke="#BBBBBB" stroke-opacity="0.69"/>
<defs>
<filter id="filter0_d_21_38" x="146.079" y="471.768" width="731.841" height="214.101" filterUnits="userSpaceOnUse" color-interpolation-filters="sRGB">
<feFlood flood-opacity="0" result="BackgroundImageFix"/>
<feColorMatrix in="SourceAlpha" type="matrix" values="0 0 0 0 0 0 0 0 0 0 0 0 0 0 0 0 0 0 127 0" result="hardAlpha"/>
<feOffset dy="18"/>
<feGaussianBlur stdDeviation="7"/>
<feComposite in2="hardAlpha" operator="out"/>
<feColorMatrix type="matrix" values="0 0 0 0 0 0 0 0 0 0 0 0 0 0 0 0 0 0 0.25 0"/>
<feBlend mode="normal" in2="BackgroundImageFix" result="effect1_dropShadow_21_38"/>
<feBlend mode="normal" in="SourceGraphic" in2="effect1_dropShadow_21_38" result="shape"/>
</filter>
<radialGradient id="paint0_radial_21_38" cx="0" cy="0" r="1" gradientUnits="userSpaceOnUse" gradientTransform="translate(512 512) rotate(90) scale(512)">
<stop stop-color="#DCFCA7"/>
<stop offset="1" stop-color="#88DC00"/>
</radialGradient>
</defs>
</svg>
